<svg width="106" height="32" viewBox="0 0 106 32" fill="none" xmlns="http://www.w3.org/2000/svg">
<path d="M4.27204 23V6.99999H0.81604V23H4.27204Z" fill="black"/>
<path d="M16.3808 6.58399C14.1088 6.58399 12.4768 7.41599 11.4208 9.04799V6.99999H7.96479V23H11.4208V14.424C11.4208 11.32 13.0528 9.81599 15.4848 9.81599C17.6928 9.81599 19.0688 11.128 19.0688 13.528V23H22.5248V13.176C22.5248 9.07999 20.0608 6.58399 16.3808 6.58399Z" fill="black"/>
<path d="M29.03 11.416C29.03 10.296 30.054 9.71999 31.366 9.71999C32.806 9.71999 33.83 10.328 34.374 11.544L37.286 9.91199C36.166 7.83199 34.022 6.58399 31.366 6.58399C29.702 6.58399 28.294 7.03199 27.174 7.92799C26.054 8.82399 25.51 10.008 25.51 11.48C25.446 14.84 28.678 15.8 31.078 16.408C32.774 16.824 34.118 17.432 34.118 18.456C34.118 19.64 33.222 20.248 31.398 20.248C29.574 20.248 28.39 19.48 27.846 17.944L24.87 19.672C25.894 22.008 28.23 23.416 31.398 23.416C33.19 23.416 34.662 22.968 35.846 22.104C37.03 21.24 37.638 20.024 37.638 18.488C37.702 15.064 34.502 14.04 32.038 13.496C30.374 13.016 29.03 12.472 29.03 11.416Z" fill="black"/>
<path d="M49.412 6.58399C46.98 6.58399 45.124 7.47999 43.812 9.30399V6.99999H40.356V29.4H43.812V20.728C45.124 22.52 46.98 23.416 49.412 23.416C51.62 23.416 53.476 22.616 55.044 20.984C56.612 19.352 57.38 17.368 57.38 15C57.38 12.664 56.612 10.68 55.044 9.04799C53.476 7.41599 51.62 6.58399 49.412 6.58399ZM45.252 18.68C44.292 17.688 43.812 16.472 43.812 15C43.812 13.528 44.292 12.312 45.252 11.352C46.212 10.36 47.428 9.87999 48.868 9.87999C50.308 9.87999 51.524 10.36 52.484 11.352C53.444 12.312 53.924 13.528 53.924 15C53.924 16.472 53.444 17.688 52.484 18.68C51.524 19.64 50.308 20.12 48.868 20.12C47.428 20.12 46.212 19.64 45.252 18.68Z" fill="black"/>
<path d="M63.6483 6.99999H60.1923V23H63.6483V14.936C63.6483 13.304 64.1283 12.12 65.1203 11.416C66.1123 10.68 67.2643 10.36 68.5763 10.456V6.71199C66.1763 6.71199 64.5123 7.70399 63.6483 9.68799V6.99999Z" fill="black"/>
<path d="M74.2658 23V6.99999H70.8098V23H74.2658Z" fill="black"/>
<path d="M86.3745 6.58399C84.1025 6.58399 82.4705 7.41599 81.4145 9.04799V6.99999H77.9585V23H81.4145V14.424C81.4145 11.32 83.0465 9.81599 85.4785 9.81599C87.6865 9.81599 89.0625 11.128 89.0625 13.528V23H92.5185V13.176C92.5185 9.07999 90.0545 6.58399 86.3745 6.58399Z" fill="black"/>
<path d="M104.848 6.99999H100.88V2.51999L97.4238 3.54399V6.99999H94.4798V10.328H97.4238V18.008C97.4238 22.2 99.5678 23.64 104.848 23V19.896C102.224 20.024 100.88 20.056 100.88 18.008V10.328H104.848V6.99999Z" fill="black"/>
<circle cx="2.5" cy="2.5" r="2.5" fill="#496ADC"/>
<circle cx="72.6" cy="2.5" r="2.5" fill="#496ADC"/>
</svg>
